<svg xmlns="http://www.w3.org/2000/svg" xmlns:xlink="http://www.w3.org/1999/xlink" version="1.1" x="0px" y="0px" viewBox="0 0 67.355 125" enable-background="new 0 0 67.355 100" xml:space="preserve"><path d="M17.821,23.672c-0.608,1.823-2.45,2.39-4.779,2.511c-0.405,0.041-0.83,0.041-1.256,0.041h-0.02  c-2.199,0.09-3.925,0.526-4.523,2.446l8.157,2.2h4.443c-0.067-6.573-0.148-11.523-0.239-11.767C18.733,10.969,15.902,5,12.536,5  s-6.198,5.969-7.068,14.103c-0.078,0.209-0.148,3.864-0.209,9.031l1.75,0.472c0.003-0.555,0.081-1.053,0.221-1.471  c0.608-1.823,2.471-2.39,4.8-2.511c0.445,0,0.891,0,1.296-0.04c2.471-0.101,4.354-0.648,4.678-3.22  c0.04,0.263,0.061,0.547,0.061,0.81c0,0.567-0.081,1.073-0.223,1.499L17.821,23.672L17.821,23.672z"/><path d="M38.747,30.87c0.762-2.284,1.547-4.327,2.517-5.686c0.478-0.67-1.833,1.703-4.616,4.857  c1.207-3.728,2.264-7.433,3.757-9.526c0.414-0.581-1.269,1.126-3.538,3.646c0.525-3.381,1.015-6.589,2.031-8.613  c0.436-0.868-2.319,3.052-5.067,7.5c-0.772-3.261-1.499-6.342-1.324-8.558c0.076-0.957-0.972,3.594-1.835,8.679  c-1.965-2.347-3.758-4.561-4.533-6.461c-0.372-0.911,0.803,3.878,2.375,8.948c-1.45-1.47-2.684-2.869-3.378-4.162  c-0.46-0.856,1.164,3.649,3.223,8.452c-2.112-0.879-3.986-1.769-5.222-2.786c-0.545-0.449,1.007,1.309,3.326,3.709L38.747,30.87  L38.747,30.87z"/><path d="M15.304,32.742V95h48.683V32.742H15.304z M60.769,79.663H18.874c-0.259,0-0.468-0.209-0.468-0.468s0.209-0.468,0.468-0.468  h41.895c0.259,0,0.468,0.209,0.468,0.468S61.028,79.663,60.769,79.663z"/><path d="M3.413,29.575L3.368,91.729l10.064,2.715V32.742v-0.464L3.413,29.575z M7.515,87.47l-2.809,3.043  c-0.092,0.1-0.218,0.15-0.344,0.15c-0.114,0-0.228-0.041-0.318-0.124c-0.19-0.175-0.202-0.471-0.026-0.661l2.809-3.043  c0.174-0.19,0.472-0.201,0.661-0.026C7.679,86.983,7.69,87.28,7.515,87.47z M12.502,92.733c-0.059,0.025-0.121,0.037-0.181,0.037  c-0.182,0-0.356-0.107-0.432-0.287l-1.872-4.447c-0.1-0.238,0.011-0.512,0.25-0.613c0.236-0.099,0.512,0.011,0.613,0.25l1.872,4.447  C12.852,92.358,12.74,92.632,12.502,92.733z"/><g><path d="M52.722,16.481c-1.196-0.05-2.164-0.12-2.213,1.076l-0.068,1.632c-0.389-0.193-0.959-0.215-1.601-0.241   c-1.196-0.05-2.164-0.12-2.213,1.076l-0.446,10.72h3.779h0.558h3.779l0.542-13.006C54.888,16.541,53.917,16.53,52.722,16.481z"/><path d="M59.222,18.946c-1.196-0.05-2.164-0.12-2.213,1.076l-0.446,10.72h4.337l0.439-10.54   C61.388,19.007,60.417,18.996,59.222,18.946z"/></g><text x="0" y="115" fill="#000000" font-size="5px" font-weight="bold" font-family="'Helvetica Neue', Helvetica, Arial-Unicode, Arial, Sans-serif">Created by Claire Jones</text><text x="0" y="120" fill="#000000" font-size="5px" font-weight="bold" font-family="'Helvetica Neue', Helvetica, Arial-Unicode, Arial, Sans-serif">from the Noun Project</text></svg>